<svg width="256" height="256" viewBox="0 0 256 256" fill="none" xmlns="http://www.w3.org/2000/svg">
  <defs>
    <linearGradient id="g" x1="44" y1="30" x2="214" y2="226" gradientUnits="userSpaceOnUse">
      <stop stop-color="#34D399" stop-opacity="0.6"/>
      <stop offset="1" stop-color="#60A5FA" stop-opacity="0.6"/>
    </linearGradient>
  </defs>
  <rect x="22" y="22" width="212" height="212" rx="28" fill="url(#g)" stroke="#0f172a" stroke-width="2"/>
  <path d="M128 58l10 26 26 10-26 10-10 26-10-26-26-10 26-10 10-26z" fill="#0EA5E9"/>
  <path d="M64 120l7 18 18 7-18 7-7 18-7-18-18-7 18-7 7-18z" fill="#10B981" opacity="0.9"/>
  <path d="M192 108l7 18 18 7-18 7-7 18-7-18-18-7 18-7 7-18z" fill="#60A5FA" opacity="0.9"/>
  <text x="128" y="176" text-anchor="middle" font-family="ui-sans-serif, system-ui, -apple-system, Segoe UI, Roboto" font-size="26" font-weight="700" fill="#E2E8F0">HabitFlow</text>
</svg>

