<svg width="1280" height="720" viewBox="0 0 1280 720" xmlns="http://www.w3.org/2000/svg">
  <defs>
    <linearGradient id="bg" x1="0" y1="0" x2="1" y2="1">
      <stop offset="0" stop-color="#0B1220"/>
      <stop offset="1" stop-color="#0A1F1B"/>
    </linearGradient>
    <linearGradient id="accent" x1="0" y1="0" x2="1" y2="0">
      <stop offset="0" stop-color="#10B981" stop-opacity="0.9"/>
      <stop offset="1" stop-color="#60A5FA" stop-opacity="0.9"/>
    </linearGradient>
  </defs>
  <rect width="1280" height="720" fill="url(#bg)"/>
  <rect x="60" y="60" width="1160" height="600" rx="28" fill="#0F172A" opacity="0.55" stroke="#334155" stroke-width="2"/>
  <rect x="98" y="98" width="1084" height="86" rx="18" fill="#111827" opacity="0.7"/>
  <rect x="98" y="204" width="520" height="420" rx="18" fill="#0B1220" opacity="0.65" stroke="#243042" stroke-width="2"/>
  <rect x="638" y="204" width="544" height="160" rx="18" fill="#0B1220" opacity="0.65" stroke="#243042" stroke-width="2"/>
  <rect x="638" y="376" width="544" height="248" rx="18" fill="#0B1220" opacity="0.65" stroke="#243042" stroke-width="2"/>
  <rect x="128" y="130" width="240" height="18" rx="9" fill="url(#accent)"/>
  <rect x="128" y="156" width="360" height="10" rx="5" fill="#94A3B8" opacity="0.6"/>
  <rect x="638" y="120" width="300" height="14" rx="7" fill="#94A3B8" opacity="0.4"/>
  <g opacity="0.85">
    <rect x="140" y="240" width="40" height="40" rx="10" fill="#22C55E" opacity="0.85"/>
    <rect x="190" y="240" width="40" height="40" rx="10" fill="#334155" opacity="0.9"/>
    <rect x="240" y="240" width="40" height="40" rx="10" fill="#22C55E" opacity="0.75"/>
    <rect x="290" y="240" width="40" height="40" rx="10" fill="#334155" opacity="0.9"/>
    <rect x="340" y="240" width="40" height="40" rx="10" fill="#22C55E" opacity="0.7"/>
    <rect x="390" y="240" width="40" height="40" rx="10" fill="#334155" opacity="0.9"/>
    <rect x="440" y="240" width="40" height="40" rx="10" fill="#22C55E" opacity="0.6"/>
    <rect x="490" y="240" width="40" height="40" rx="10" fill="#334155" opacity="0.9"/>
  </g>
  <text x="128" y="590" fill="#93C5FD" font-family="ui-sans-serif, system-ui, -apple-system, Segoe UI, Roboto" font-size="20" font-weight="600">Habit Matrix + Analytics (placeholder)</text>
</svg>

